<mxfile host="app.diagrams.net" modified="2023-10-20T10:43:16.600Z" agent="Mozilla/5.0 (Windows NT 10.0; Win64; x64) AppleWebKit/537.36 (KHTML, like Gecko) Chrome/118.0.0.0 Safari/537.36" etag="8-ZWrxF_iqTTJbXL4EYB" version="22.0.5" type="github">
  <diagram name="Page-1" id="atNZOBw6ifZnFIZndVgu">
    <mxGraphModel dx="493" dy="658" grid="1" gridSize="10" guides="1" tooltips="1" connect="1" arrows="1" fold="1" page="1" pageScale="1" pageWidth="850" pageHeight="1100" math="0" shadow="0">
      <root>
        <mxCell id="0" />
        <mxCell id="1" parent="0" />
        <mxCell id="irzzv5rtB9ydZxvZttxy-1" value="UTAS" style="rounded=0;whiteSpace=wrap;html=1;" vertex="1" parent="1">
          <mxGeometry x="150" y="280" width="50" height="20" as="geometry" />
        </mxCell>
        <mxCell id="irzzv5rtB9ydZxvZttxy-3" style="rounded=0;orthogonalLoop=1;jettySize=auto;html=1;endArrow=none;endFill=0;" edge="1" parent="1" source="irzzv5rtB9ydZxvZttxy-2" target="irzzv5rtB9ydZxvZttxy-1">
          <mxGeometry relative="1" as="geometry" />
        </mxCell>
        <mxCell id="irzzv5rtB9ydZxvZttxy-2" value="&lt;u&gt;azonosító&lt;/u&gt;" style="ellipse;whiteSpace=wrap;html=1;" vertex="1" parent="1">
          <mxGeometry x="10" y="280" width="70" height="20" as="geometry" />
        </mxCell>
        <mxCell id="irzzv5rtB9ydZxvZttxy-17" style="edgeStyle=orthogonalEdgeStyle;rounded=0;orthogonalLoop=1;jettySize=auto;html=1;entryX=0;entryY=0.75;entryDx=0;entryDy=0;endArrow=none;endFill=0;" edge="1" parent="1" source="irzzv5rtB9ydZxvZttxy-6" target="irzzv5rtB9ydZxvZttxy-1">
          <mxGeometry relative="1" as="geometry" />
        </mxCell>
        <mxCell id="irzzv5rtB9ydZxvZttxy-6" value="szül. dátum" style="ellipse;whiteSpace=wrap;html=1;" vertex="1" parent="1">
          <mxGeometry x="10" y="320" width="70" height="20" as="geometry" />
        </mxCell>
        <mxCell id="irzzv5rtB9ydZxvZttxy-12" style="edgeStyle=orthogonalEdgeStyle;rounded=0;orthogonalLoop=1;jettySize=auto;html=1;entryX=0.25;entryY=0;entryDx=0;entryDy=0;endArrow=none;endFill=0;" edge="1" parent="1" source="irzzv5rtB9ydZxvZttxy-7" target="irzzv5rtB9ydZxvZttxy-1">
          <mxGeometry relative="1" as="geometry">
            <Array as="points">
              <mxPoint x="175" y="280" />
            </Array>
          </mxGeometry>
        </mxCell>
        <mxCell id="irzzv5rtB9ydZxvZttxy-7" value="pontok" style="ellipse;whiteSpace=wrap;html=1;" vertex="1" parent="1">
          <mxGeometry x="140" y="160" width="70" height="20" as="geometry" />
        </mxCell>
        <mxCell id="irzzv5rtB9ydZxvZttxy-15" style="edgeStyle=orthogonalEdgeStyle;rounded=0;orthogonalLoop=1;jettySize=auto;html=1;entryX=0;entryY=0.25;entryDx=0;entryDy=0;endArrow=none;endFill=0;" edge="1" parent="1" source="irzzv5rtB9ydZxvZttxy-8" target="irzzv5rtB9ydZxvZttxy-1">
          <mxGeometry relative="1" as="geometry" />
        </mxCell>
        <mxCell id="irzzv5rtB9ydZxvZttxy-8" value="lakcím" style="ellipse;whiteSpace=wrap;html=1;" vertex="1" parent="1">
          <mxGeometry x="10" y="240" width="70" height="20" as="geometry" />
        </mxCell>
        <mxCell id="irzzv5rtB9ydZxvZttxy-9" value="név" style="ellipse;whiteSpace=wrap;html=1;" vertex="1" parent="1">
          <mxGeometry x="70" y="70" width="70" height="20" as="geometry" />
        </mxCell>
        <mxCell id="irzzv5rtB9ydZxvZttxy-10" value="telefonszám" style="ellipse;whiteSpace=wrap;html=1;" vertex="1" parent="1">
          <mxGeometry x="10" y="360" width="70" height="20" as="geometry" />
        </mxCell>
        <mxCell id="irzzv5rtB9ydZxvZttxy-11" value="klubtagság" style="ellipse;whiteSpace=wrap;html=1;" vertex="1" parent="1">
          <mxGeometry x="10" y="200" width="70" height="20" as="geometry" />
        </mxCell>
        <mxCell id="irzzv5rtB9ydZxvZttxy-14" style="edgeStyle=orthogonalEdgeStyle;rounded=0;orthogonalLoop=1;jettySize=auto;html=1;entryX=0.128;entryY=0.06;entryDx=0;entryDy=0;entryPerimeter=0;endArrow=none;endFill=0;" edge="1" parent="1" source="irzzv5rtB9ydZxvZttxy-11" target="irzzv5rtB9ydZxvZttxy-1">
          <mxGeometry relative="1" as="geometry" />
        </mxCell>
        <mxCell id="irzzv5rtB9ydZxvZttxy-18" style="edgeStyle=orthogonalEdgeStyle;rounded=0;orthogonalLoop=1;jettySize=auto;html=1;exitX=1;exitY=0.5;exitDx=0;exitDy=0;endArrow=none;endFill=0;entryX=0.104;entryY=1.04;entryDx=0;entryDy=0;entryPerimeter=0;" edge="1" parent="1" source="irzzv5rtB9ydZxvZttxy-10" target="irzzv5rtB9ydZxvZttxy-1">
          <mxGeometry relative="1" as="geometry">
            <mxPoint x="90" y="360" as="sourcePoint" />
            <mxPoint x="160" y="300" as="targetPoint" />
          </mxGeometry>
        </mxCell>
        <mxCell id="irzzv5rtB9ydZxvZttxy-19" style="edgeStyle=orthogonalEdgeStyle;rounded=0;orthogonalLoop=1;jettySize=auto;html=1;exitX=0.5;exitY=1;exitDx=0;exitDy=0;" edge="1" parent="1" source="irzzv5rtB9ydZxvZttxy-7" target="irzzv5rtB9ydZxvZttxy-7">
          <mxGeometry relative="1" as="geometry" />
        </mxCell>
      </root>
    </mxGraphModel>
  </diagram>
</mxfile>
